Patient4_TMGait_0pt4_03_right_23_EMG.mot
version=1
nRows=33
nColumns=33
inDegrees=no
endheader
time	1LAddLong	2LGlutMax	3LGlutMed	4LIliopsoas	5LSemiMemb	6LBicFemLong	7LRecFem	8LVastMed	9LVastLat	10LGasMed	11LTibAnt	12lTibPost	13LPeroneusLong	14LSol	15LExtDigLong	16LFlexDigLong	17RAddLong	18RGlutMax	19RGlutMed	20RIliopsoas	21RSemiMemb	22RBicFemLong	23RRecFem	24RVastMed	25RVastLat	26RGasMed	27RTibAnt	28RTibPost	29RPeroneusLong	30RSol	31RExtDigLong	32RFlexDigLong
29.925	-0.009308	-0.020752	-0.11032	0.006256	-0.00946	-0.012207	-0.10483	-0.00946	0.069733	-0.023651	-0.00412	-0.024109	0.003662	-0.42206	-0.00824	-0.089417	0.015717	-0.77179	-0.022125	-0.045624	0.077057	-0.45944	0.20371	0.15045	-0.13886	-0.072479	0.21561	0.062103	0.50369	0.18524	-0.001526	-0.024719
29.926	-0.000763	-0.043793	-0.12116	0.00824	-0.008698	-0.012512	-0.1091	-0.000763	0.068054	-0.03891	0.010529	-0.045013	-0.011902	-0.48035	-0.010223	0.36118	0.062561	-0.77133	-0.096741	0.11261	0.37048	-0.65247	0.34927	0.14999	-0.1265	-0.00061	0.16693	0.13245	0.90698	0.30518	0	-0.02243
29.927	-0.000763	-0.042419	-0.089722	-0.000763	-0.006409	-0.012665	-0.11719	0.002899	0.074768	-0.055237	0.016022	-0.029144	-0.08255	-0.34821	-0.007019	0.13458	0.10529	-0.8371	-0.38101	0.15595	0.33157	-0.67474	0.36957	0.014191	-0.015717	-0.083008	0.060577	-0.000305	-1.3106	0.34073	-0.003662	-0.019989
29.928	0.010681	-0.018005	-0.059052	0.005188	-0.013275	-0.000305	-0.12558	0.009613	0.079651	-0.020447	-0.001526	-0.008392	0.12848	0.042419	0.00351	0.02121	0.089874	-0.90775	-0.37125	0.17899	0.024261	-0.29907	0.30441	-0.1387	0.027313	-0.09613	0.045929	-0.053101	-2.0224	-0.017853	0.000458	-0.001373
29.929	0.001984	0.03891	-0.037537	-0.011139	-0.010071	0.007324	-0.11368	0.00885	0.08606	-0.000458	-0.016022	0.001984	0.22034	0.20065	0.006714	-0.036316	-0.022888	-0.91873	0.004425	0.24521	-0.41992	0.16739	0.30319	-0.16113	0.011139	-0.10407	0.039673	-0.032196	0.088959	-0.31769	0.000458	-0.01709
29.93	0.004883	0.012207	0.028687	0.008392	-0.007477	0.017853	-0.12299	0.004425	0.093994	0.016937	-0.011597	0.009308	0.14175	0.030823	-0.005035	-0.043488	-0.10025	-0.98602	-0.010529	0.14847	-0.38116	0.31891	0.1268	-0.081787	0.049591	-0.12207	0.16266	-0.028229	-0.044098	-0.4538	0.005341	-0.0177
29.931	0.009613	-0.002899	0.046539	0.000458	-0.007324	0.008698	-0.089874	0.002441	0.10529	0.079956	-0.014801	0.010834	0.088501	-0.00885	-0.010376	-0.022125	-0.16129	-1.0796	0.010986	-0.08728	0.075989	0.18356	0.16144	0.072784	0.065613	-0.24033	-0.04425	-0.033722	1.9823	-0.49988	-0.000153	-0.010834
29.932	0.015259	-0.019073	0.061493	0.006104	-0.010376	0.005951	-0.082855	0.008545	0.097504	0.002594	-0.016174	0.00824	0.037384	0.17197	-0.017548	0.014191	-0.10086	-1.257	-0.25085	-0.06485	0.15717	0.007019	0.28748	0.12283	0.055542	-0.20523	-0.23911	-0.050201	1.1697	-0.45578	-0.002289	-0.005798
29.933	0.006104	-0.008087	0.062714	-0.00946	-0.008698	0.007935	-0.062561	0.005035	0.10269	-0.1358	-0.007172	0.009918	-0.029907	0.014954	-0.0177	0.006409	-0.068665	-1.3034	-0.63828	0.12848	0.1326	-0.017395	0.39215	0.11383	-0.26779	-0.24338	-0.18524	-0.056915	0.41351	-0.17624	0.000153	-0.013428
29.934	0.009613	0.03479	0.084076	0.000305	-0.009003	0.009613	-0.054474	0.008392	0.11353	-0.066376	0.000763	0.004425	-0.089569	-0.12589	-0.001068	-0.042725	-0.02121	-1.347	-0.62698	0.21744	0.015564	0.18265	0.49667	0.036316	-0.63812	-0.46661	-0.076141	-0.055847	-0.26749	-0.21362	-0.002594	-0.012512
29.935	0.00824	0.04837	0.1033	-0.000916	-0.008392	-0.006256	-0.044098	0.010529	0.12039	-0.037689	0.002747	0.003967	-0.024261	-0.010376	-0.004425	-0.062561	0.024719	-1.3853	-0.28122	0.20889	-0.05249	-0.14008	0.58121	-0.10208	-0.43243	-0.3009	-0.013885	-0.055847	-0.2536	0.018005	-0.004272	-0.007629
29.936	-0.00473	0.040894	0.11215	0.009155	-0.009918	-0.001984	-0.014343	0.012817	0.12497	-0.028381	-0.007477	-0.012817	0.04364	-0.023956	-0.007019	-0.070038	0.048523	-1.3353	-0.33737	0.14175	-0.089111	-0.34347	0.60318	-0.11414	-0.31433	0.038452	-0.087433	-0.07019	0.50781	-0.24765	0.000763	-0.013733
29.937	0.004578	0.039978	0.13046	0.004272	-0.010986	0.007172	-0.002899	0.014191	0.12466	-0.031586	0.001678	-0.01358	0.035553	-0.024261	-0.051575	-0.027466	0.045776	-1.3286	0.64194	-0.012665	-0.073853	-0.2269	0.51666	-0.023651	-0.21179	0.18524	0.069275	0.02594	0.66803	-0.58945	0.00061	-0.030975
29.938	-0.001373	0.061188	0.14084	0.010681	-0.012207	0.024719	0.043945	0.011749	0.13428	-0.045776	-0.013733	0.005035	0.016785	-0.10223	-0.015106	-0.010223	-0.017548	-1.3286	0.75577	-0.13412	-0.056458	0.036926	0.30136	-0.013885	-0.15198	0.1004	0.15045	0.14343	1.8594	0.23911	-0.001526	-0.04303
29.939	0.000916	0.062256	0.1384	0.000763	-0.009613	-0.000458	0.056915	0.013428	0.12772	-0.058899	-0.003052	-0.001526	0.027771	-0.092621	0.012512	-0.00824	0.001068	-1.4232	-0.15259	-0.1413	-0.10147	0.051575	0.1619	-0.075226	-0.089569	0.17425	0.047913	0.041962	2.901	0.74143	-0.004425	-0.033264
29.94	0.000763	0.072937	0.12299	0.017853	-0.011444	-0.007019	0.11246	0.000916	0.11566	-0.065155	-0.003052	-0.005951	0.018921	0.061493	0.019531	0.05188	-0.013123	-1.4351	-0.86639	-0.099487	-0.49423	0.006714	0.060883	0	0.030823	0.24521	-0.011597	-0.03418	-0.35339	0.58029	-0.003052	-0.020294
29.941	0.001831	0.054016	0.12131	0.006714	-0.010376	-0.009613	0.1973	-0.001678	0.121	-0.040436	-0.007782	-0.003967	-0.039063	0.15823	0.00824	-0.057831	-0.001678	-1.3557	-1.2572	-0.085907	-0.28153	-0.10681	0.058899	-0.085907	0.36224	0.19669	-0.084076	-0.054474	-1.6866	0.25238	-0.003052	-0.0177
29.942	0.002747	0.05188	0.12116	-0.004578	-0.012512	-0.00473	0.21316	0.000153	0.10956	-0.10941	-0.006256	-0.019684	-0.21347	0.2623	-0.008698	-0.028992	-0.006104	-1.3898	-1.0202	-0.093079	0.095367	-0.1564	-0.21759	-0.069122	0.52094	0.067596	0.25787	-0.042877	-1.6911	0.001373	-0.002747	-0.014191
29.943	0.006256	0.069275	0.13336	-0.004578	-0.00885	-0.014038	0.24551	0.008698	0.10086	-0.14282	0.000458	-0.40817	-0.23911	0.10651	-0.017853	0.439	-0.010071	-1.4786	-0.70648	-0.11124	-0.075989	-0.035248	-0.27741	-0.022125	0.52734	-0.007782	0.39261	-0.052795	-0.5542	0.027618	-0.006256	-0.017242
29.944	-0.001373	0.080719	0.12451	0.005035	-0.01358	0.00351	0.24689	0.00885	0.091858	-0.16174	0.003204	0.4277	-0.17441	-0.12497	0.037842	-0.72632	-0.002594	-1.5079	-0.98099	-0.048065	-0.15472	-0.028534	-0.14084	-0.021362	0.3418	-0.073853	0.23605	-0.019226	1.2679	-0.021515	-0.002594	-0.01236
29.945	-0.002899	0.095062	0.12405	0.005951	-0.009155	-0.000458	0.23483	0.00473	0.092621	-0.091553	-0.001678	0.1506	0.15595	0.069275	0.076752	0.1561	-0.025024	-1.3608	-0.98038	0.12268	-0.27679	0.076599	-0.17364	-0.034027	0.17349	-0.004272	-0.015564	0.060425	1.5981	-0.32715	-0.000458	-0.008698
29.946	-0.000153	0.094604	0.12634	0.00824	-0.00946	0.015106	0.19104	-0.001221	0.09964	0.084534	-0.006714	0.010834	0.13779	0.083313	0.045013	0.30991	-0.053406	-1.2901	-0.69397	0.17914	0.054016	0.11353	-0.13046	0.050507	-0.05722	0.14771	-0.079193	-0.007019	-0.53238	-0.27893	-0.004578	-0.010376
29.947	0.000305	0.094604	0.14526	-0.000763	-0.012817	0.002747	0.12985	0.002136	0.085449	0.089569	0.055084	-0.095673	0.36301	-0.073547	0.018921	0.18982	-0.070496	-1.2523	-0.96878	0.074005	0.45959	0.24445	-0.11292	0.15915	-0.32898	0.14374	-0.1294	-0.001373	-0.4007	-0.44495	-0.003357	-0.001221
29.948	0.007172	0.071716	0.14908	-0.00824	-0.00061	0.005341	0.036316	0.012054	0.069122	-0.080109	-0.073547	-0.11368	0.30746	-0.21286	0.053711	0.11841	-0.051727	-1.0223	-1.5643	-0.039063	0.37323	0.15869	0.008087	0.12833	-0.55969	0.1239	-0.065613	0.006104	0.32867	-0.092468	-0.002289	-0.006104
29.949	0.010529	0.047913	0.14572	0.00885	0.003815	0.025635	-0.037384	0.012665	0.080566	-0.12528	-0.005341	-0.068207	0.24811	-0.578	0.000916	0.033112	-0.013885	-0.90851	-0.88119	-0.05661	0.19714	-0.095215	-0.074463	0.012665	-0.54367	0.040894	-0.12482	-0.024872	0.61417	0.14648	-0.001221	-0.002289
29.95	0.013275	0.072784	0.15732	0.011597	-0.007629	-0.007172	-0.014801	0.018005	0.07843	0.037994	0.002594	0.45059	0.23392	-0.70252	-0.070648	-0.20157	0.005188	-0.76721	0.1358	0.007935	0.010376	-0.18448	-0.10391	0.000763	-0.28275	-0.034637	-0.10117	-0.027924	-0.055084	0.14008	-0.002441	-0.002594
29.951	0.006256	0.044708	0.15305	-0.001068	-0.008698	0.0177	-0.007324	0.013123	0.08255	0.076752	0.004425	0.091705	0.055389	-0.53146	-0.00946	-1.4731	0.010834	-0.64346	-0.29007	0.028076	-0.041809	-0.065765	-0.063629	0.047913	-0.092468	-0.097351	0.02243	-0.026398	-1.8524	0.17731	-0.00351	-0.002289
29.952	0.014191	0.037537	0.14526	-0.007172	-0.011902	-0.006714	-0.014191	0.016632	0.098419	0.01709	-0.01236	0.01297	-0.17593	-0.10757	0.040588	0.81284	0.022278	-0.69778	-0.31143	-0.031586	-0.05127	-0.019989	-0.00885	-0.034943	0.00885	-0.045929	0.083771	-0.025482	0.067596	0.13519	-0.00473	-0.011749
29.953	0.017395	0.005493	0.1474	0.003204	-0.012665	-0.006104	0.034485	0.01358	0.097198	0.11826	0.019379	-0.25314	-0.3186	0.62057	0.009766	0.54245	-0.010376	-0.63126	0.31174	-0.14435	-0.048828	0.1265	0.068665	-0.15411	-0.059357	0.071106	0.093079	-0.020752	0.31403	0.08316	-0.001221	-0.003662
29.954	0.010071	-0.007477	0.13382	-0.007477	-0.004425	0.002289	0.059357	0.005188	0.094452	0.045929	0.001678	-0.1622	0.018158	-0.10452	0.027618	-0.05127	0.016632	-0.57236	-0.10346	-0.15503	-0.12512	0.11963	-0.015717	-0.16464	-0.10727	0.048065	0.20737	0.012512	-1.1748	-0.080109	-0.000916	-0.008087
29.955	0.012054	-0.016785	0.14191	-0.008545	-0.00351	0.007324	0.12543	0.004578	0.074615	0.038452	0.01236	0.09491	0.14786	-0.38361	0.049133	0.22507	0.030975	-0.54092	-0.61768	-0.074921	-0.18005	-0.10025	0.039978	-0.051727	-0.028381	0.036774	0.11169	-0.007172	-1.2793	-0.13062	-0.000916	-0.009003
29.956	0.009308	-0.070343	0.1358	-0.002747	-0.006866	0.007935	0.15305	0.002136	0.070953	0.066833	0.007782	0.065155	0.49286	0.13321	-0.010376	0.21439	0.051575	-0.53757	-0.15411	0.021667	-0.17609	-0.41992	-0.011444	0.024872	-0.022583	0.023956	-0.13092	0.036163	-0.00824	-0.27588	-0.002289	0.001221
29.957	0.008392	-0.039368	0.13794	0.001526	-0.004272	0.000305	0.20065	0.002747	0.054321	-0.16068	-0.026703	-0.12009	-0.12817	0.64819	-0.014343	-0.041656	0.027924	-0.53497	-0.4184	0.099792	-0.058899	-0.466	-0.087585	0.003204	0.040741	0.000305	-0.030212	-0.036163	0.1741	-0.071106	-0.001526	-0.012512
